<svg width="219" height="70" viewBox="0 0 219 70" fill="none" xmlns="http://www.w3.org/2000/svg">
<path d="M45.957 2.5H19.043C8.52583 2.5 0 11.0258 0 21.543V48.457C0 58.9742 8.52583 67.5 19.043 67.5H45.957C56.4742 67.5 65 58.9742 65 48.457V21.543C65 11.0258 56.4742 2.5 45.957 2.5Z" fill="url(#paint0_linear_7_77)"/>
<path d="M31.708 51.0228C29.235 51.0228 27.0971 50.6317 25.2969 49.851C23.4954 49.0702 22.0926 47.873 21.0884 46.2607C20.0829 44.6484 19.537 42.5905 19.4507 40.0883L19.4938 39.9575H26.588C26.7327 41.9964 27.1771 43.3675 27.9223 44.0695C28.6675 44.7716 29.6044 45.122 30.7317 45.122C31.383 45.122 32.0076 44.9772 32.6081 44.6878C33.2086 44.3983 33.7037 43.9324 34.0947 43.2888C34.4857 42.6451 34.68 41.8021 34.68 40.7611V24.1417L30.3839 23.4257V18.9785H45.5497V23.4485L42.2515 24.143V40.7624C42.2515 42.8889 41.8389 44.7183 41.0149 46.2519C40.191 47.7854 38.9938 48.9636 37.4247 49.7888C35.8556 50.6127 33.95 51.0253 31.708 51.0253V51.0228Z" fill="white"/>
<path d="M83.4 22.072L88.648 22.136C94.2373 22.776 97.8 24.888 99.336 28.472C99.5067 28.856 99.6347 29.24 99.72 29.624L99.912 30.328L99.976 38.008C99.976 43 100.019 45.5813 100.104 45.752C100.445 46.0933 101.363 46.3067 102.856 46.392C103.539 46.392 104.029 46.4773 104.328 46.648C104.584 46.904 104.712 47.5867 104.712 48.696C104.712 49.8053 104.563 50.488 104.264 50.744C103.837 50.9147 102.472 51 100.168 51C97.608 50.9573 95.9227 50.808 95.112 50.552C93.7893 50.1253 92.936 49.464 92.552 48.568C92.3813 48.2267 92.296 48.0347 92.296 47.992C92.296 47.9493 92.104 48.056 91.72 48.312C89.8427 49.8053 87.3253 50.7867 84.168 51.256C82.504 51.4267 81.2027 51.448 80.264 51.32C76.424 50.8933 73.7147 49.3147 72.136 46.584C71.752 45.944 71.4747 45.2827 71.304 44.6C71.176 44.1307 71.112 43.5333 71.112 42.808C71.112 41.784 71.2827 40.9093 71.624 40.184C72.136 39.16 72.84 38.2853 73.736 37.56C75.2293 36.408 77.128 35.512 79.432 34.872C82.248 34.0187 85.5973 33.5067 89.48 33.336L91.08 33.272V32.12L91.016 30.456V30.392C90.76 28.6 89.8853 27.3413 88.392 26.616C87.4533 26.1467 86.2373 25.912 84.744 25.912C82.9947 25.912 82.0773 25.9547 81.992 26.04L82.184 26.424C82.5253 27.0213 82.6747 27.7893 82.632 28.728C82.632 29.4107 82.5893 29.9013 82.504 30.2C82.248 30.968 81.864 31.608 81.352 32.12C80.7973 32.6747 80.136 33.08 79.368 33.336C79.0267 33.4213 78.536 33.464 77.896 33.464C77.256 33.464 76.7867 33.4213 76.488 33.336C75.6773 33.08 74.9947 32.6747 74.44 32.12C73.928 31.608 73.544 30.968 73.288 30.2C73.2027 29.9013 73.16 29.4107 73.16 28.728C73.16 28.0453 73.2027 27.5547 73.288 27.256C73.928 24.9093 75.9973 23.352 79.496 22.584C80.648 22.328 81.9493 22.1573 83.4 22.072ZM91.08 40.184C91.08 37.9653 91.0587 36.856 91.016 36.856C90.9733 36.856 90.8667 36.8773 90.696 36.92C88.1787 37.0907 85.9813 37.5387 84.104 38.264C82.0987 39.0747 80.84 40.2053 80.328 41.656C80.1147 42.2533 80.0933 43.0213 80.264 43.96C80.6907 45.6667 81.672 46.776 83.208 47.288C83.2933 47.3307 83.4 47.3733 83.528 47.416C85.1067 47.672 86.7707 47.352 88.52 46.456C88.648 46.4133 88.776 46.3493 88.904 46.264C89.7147 45.752 90.2907 45.176 90.632 44.536C90.888 44.024 91.0373 43.1707 91.08 41.976V40.184ZM106.35 24.888V22.584H106.926L110.894 22.712C113.155 22.7547 115.587 22.7547 118.19 22.712L122.67 22.584H123.246V24.888V27.192H121.838H120.43L123.31 33.72C125.23 38.2 126.19 40.4187 126.19 40.376C126.233 40.4613 126.318 40.376 126.446 40.12C126.617 39.7787 127.534 37.7093 129.198 33.912L132.142 27.192H130.734H129.326V24.888V22.584H129.774L133.23 22.712C135.193 22.7547 137.006 22.7547 138.67 22.712L141.55 22.584H141.934V24.888V27.192H139.566H137.198L132.142 38.712C129.198 45.5387 127.47 49.4427 126.958 50.424C126.745 50.7653 126.403 51.0213 125.934 51.192C125.507 51.32 124.483 51.3413 122.862 51.256C122.606 51.256 122.435 51.2347 122.35 51.192C121.881 51.0213 121.539 50.7653 121.326 50.424C120.814 49.4427 119.086 45.5387 116.142 38.712L111.15 27.192H108.718H106.35V24.888ZM159.945 22.072L164.233 22.136C167.262 22.5627 169.694 23.6293 171.529 25.336C173.662 27.4693 174.878 30.3707 175.177 34.04C175.305 35.6187 175.113 36.5787 174.601 36.92C174.43 37.0053 171.188 37.048 164.873 37.048H155.465V38.328C155.593 41.3147 156.19 43.4053 157.257 44.6C157.342 44.6853 157.449 44.792 157.577 44.92C158.814 46.1573 160.692 46.904 163.209 47.16C164.19 47.2453 165.001 47.224 165.641 47.096C167.945 46.7547 169.566 45.6027 170.505 43.64C170.548 43.512 170.59 43.4053 170.633 43.32C170.846 42.7653 171.188 42.4667 171.657 42.424C171.87 42.3813 172.297 42.36 172.937 42.36C173.876 42.36 174.43 42.4027 174.601 42.488C175.113 42.744 175.305 43.192 175.177 43.832C174.921 44.728 174.494 45.56 173.897 46.328C171.977 48.9733 168.969 50.616 164.873 51.256C163.678 51.4267 162.078 51.448 160.073 51.32C159.945 51.2773 159.817 51.256 159.689 51.256C152.777 50.36 148.361 47.1173 146.441 41.528C146.185 40.6747 145.972 39.7787 145.801 38.84C145.63 37.6453 145.63 36.2373 145.801 34.616C145.801 34.488 145.801 34.3813 145.801 34.296C146.27 31.5227 147.273 29.1973 148.809 27.32C149.364 26.552 150.174 25.784 151.241 25.016C153.588 23.3093 156.489 22.328 159.945 22.072ZM162.825 26.04C162.185 25.912 161.374 25.8907 160.393 25.976C158.473 26.3173 157.129 27.2773 156.361 28.856C155.934 29.752 155.657 31.0533 155.529 32.76V33.336H161.481H167.497L167.433 33.016C167.006 29.048 165.47 26.7227 162.825 26.04ZM205.599 6.84C209.866 6.66933 211.956 6.584 211.871 6.584H212.255V25.784C212.255 38.584 212.298 45.0907 212.383 45.304C212.511 45.7307 212.788 46.008 213.215 46.136C213.812 46.3067 214.687 46.392 215.839 46.392H216.671V48.696C216.671 50.232 216.65 51 216.607 51C215.796 51 213.599 51.064 210.015 51.192C206.431 51.32 204.234 51.384 203.423 51.384C203.38 51.384 203.359 50.936 203.359 50.04V48.76L203.039 48.952C201.247 49.976 199.199 50.7013 196.895 51.128C194.89 51.4267 193.055 51.4693 191.391 51.256C188.234 50.7013 185.716 49.4853 183.839 47.608C181.023 44.8347 179.679 41.0373 179.807 36.216C179.85 34.552 180.127 32.9093 180.639 31.288C182.004 27.3627 184.586 24.6747 188.383 23.224C188.511 23.1813 188.639 23.1387 188.767 23.096C190.26 22.584 191.903 22.2853 193.695 22.2C197.108 22.1147 200.266 22.7547 203.167 24.12L203.743 24.376V18.744C203.743 14.9893 203.7 13.0053 203.615 12.792C203.487 12.3653 203.21 12.088 202.783 11.96C202.186 11.7893 201.311 11.704 200.159 11.704H199.327V9.4V7.096H199.519C199.306 7.096 201.332 7.01066 205.599 6.84ZM198.367 26.296C197.514 26.1253 196.618 26.0827 195.679 26.168C193.802 26.3813 192.372 26.9787 191.391 27.96C190.367 29.0267 189.791 31.0107 189.663 33.912C189.62 34.936 189.599 36.2373 189.599 37.816C189.642 41.6133 190.004 44.024 190.687 45.048C190.815 45.2613 190.986 45.4747 191.199 45.688C192.607 47.2667 194.676 47.8213 197.407 47.352C198.346 47.1813 199.242 46.8827 200.095 46.456C200.991 45.9867 201.823 45.368 202.591 44.6L203.359 43.832V36.28V28.728L203.039 28.472C201.631 27.2773 200.074 26.552 198.367 26.296Z" fill="white"/>
<defs>
<linearGradient id="paint0_linear_7_77" x1="5.57705" y1="8.07705" x2="59.423" y2="61.923" gradientUnits="userSpaceOnUse">
<stop stop-color="#FFE415"/>
<stop offset="1" stop-color="#FF5200"/>
</linearGradient>
</defs>
</svg>
